<svg width="37" height="37" viewBox="0 0 37 37" fill="none" xmlns="http://www.w3.org/2000/svg">
<g clip-path="url(#clip0_13_719)">
<path d="M8.28909 22.3366L7.01187 27.1046L2.34366 27.2034C0.948555 24.6158 0.157227 21.6552 0.157227 18.5091C0.157227 15.4668 0.897099 12.5979 2.20857 10.0718H2.20958L6.36559 10.8338L8.18617 14.9648C7.80513 16.0757 7.59744 17.2682 7.59744 18.5091C7.59759 19.8558 7.84154 21.1462 8.28909 22.3366Z" fill="#FBBB00"/>
<path d="M36.5292 15.082C36.7399 16.1918 36.8497 17.338 36.8497 18.5094C36.8497 19.8228 36.7116 21.1041 36.4485 22.3399C35.5554 26.5455 33.2218 30.2177 29.9891 32.8165L29.9881 32.8155L24.7533 32.5484L24.0125 27.9234C26.1575 26.6654 27.8339 24.6967 28.717 22.3399H18.9067V15.082H28.8601H36.5292Z" fill="#518EF8"/>
<path d="M29.9882 32.8152L29.9892 32.8162C26.8452 35.3433 22.8513 36.8554 18.5036 36.8554C11.5169 36.8554 5.44249 32.9503 2.34375 27.2034L8.28917 22.3366C9.83851 26.4716 13.8273 29.4151 18.5036 29.4151C20.5136 29.4151 22.3967 28.8717 24.0125 27.9232L29.9882 32.8152Z" fill="#28B446"/>
<path d="M30.2141 4.38663L24.2707 9.25241C22.5984 8.2071 20.6216 7.60325 18.5037 7.60325C13.7216 7.60325 9.65813 10.6818 8.18641 14.965L2.20974 10.072H2.20874C5.26211 4.18503 11.4131 0.162964 18.5037 0.162964C22.9552 0.162964 27.0367 1.74863 30.2141 4.38663Z" fill="#F14336"/>
</g>
<defs>
<clipPath id="clip0_13_719">
<rect width="36.6926" height="36.6926" fill="white" transform="translate(0.157227 0.162964)"/>
</clipPath>
</defs>
</svg>
